<svg xmlns="http://www.w3.org/2000/svg" viewBox="0 0 816 283.56"><defs><style>.cls-1{fill:#f9f9f9;}</style></defs><g id="Layer_2" data-name="Layer 2"><g id="Layer_1-2" data-name="Layer 1"><path class="cls-1" d="M328.59,246.86c0,3,2.82,5,7,5a10.62,10.62,0,0,0,7.63-2.94l-8.88-8.83C330,242.53,328.59,244.36,328.59,246.86Z"></path><path class="cls-1" d="M432,234.77a7.38,7.38,0,0,0-7.58,6.79h15.17A7.39,7.39,0,0,0,432,234.77Z"></path><path class="cls-1" d="M340.82,230.13c0-2.06-1.47-3.44-4.15-3.44s-4.46,1.56-4.46,3.79c0,1.61.62,2.77,3.17,5.36C339.48,233.52,340.82,232.09,340.82,230.13Z"></path><path class="cls-1" d="M144.44,234.94c-4.55,0-8,3.26-8,8.3s3.43,8.35,8,8.35,7.95-3.31,7.95-8.35S149,234.94,144.44,234.94Z"></path><path class="cls-1" d="M107.59,234.94c-4.55,0-8,3.26-8,8.3s3.44,8.35,8,8.35,7.94-3.31,7.94-8.35S112.14,234.94,107.59,234.94Z"></path><path class="cls-1" d="M583.87,234.94c-4.55,0-8,3.26-8,8.3s3.44,8.35,8,8.35,7.94-3.31,7.94-8.35S588.42,234.94,583.87,234.94Z"></path><path class="cls-1" d="M248.32,234.94c-4.55,0-8,3.26-8,8.3s3.44,8.35,8,8.35,7.94-3.31,7.94-8.35S252.87,234.94,248.32,234.94Z"></path><path class="cls-1" d="M43.58,228.56H36v14h7.58c5.71,0,8.69-2.55,8.69-7S49.29,228.56,43.58,228.56Z"></path><path class="cls-1" d="M766.32,234.94c-4.5,0-7.94,3.26-7.94,8.3s3.44,8.35,7.94,8.35,8-3.31,8-8.35S770.88,234.94,766.32,234.94Z"></path><path class="cls-1" d="M795.86,201.56H20.14A20.14,20.14,0,0,0,0,221.69v41.73a20.14,20.14,0,0,0,20.14,20.14H795.86A20.14,20.14,0,0,0,816,263.42V221.69A20.14,20.14,0,0,0,795.86,201.56Zm-751.55,45H36v9H32v-31H44.31c8.2,0,13.16,4.14,13.16,11S52.51,246.56,44.31,246.56Zm39.69-11a7.55,7.55,0,0,0-.93,0c-4.36,0-7.07,2.66-7.07,7.57v12.48H71v-24h4v4c1.59-2.77,4.66-4.2,9-4.2Zm23.59,19.78c-7.1,0-12.32-5-12.32-12.09s5.22-12,12.32-12,12.27,5,12.27,12S114.68,255.33,107.59,255.33Zm48.41.23h-4v-3.8c-1.4,2.68-4.43,4-7.91,4-6.92,0-12-4.86-12-12.09s5-12.05,12-12.05c3.34,0,7.91,3.79,7.91,3.79V222.56h4Zm39,0h-4v-3.63a9.43,9.43,0,0,1-7.94,3.9c-6,0-10.06-3.4-10.06-10.46V231.56h4v13.11c0,4.64,2.37,7,6.52,7,4.56,0,7.48-2.76,7.48-7.85V231.56h4Zm25,.39c-4.46,0-7-2.64-7-7.41v-13h-4v-4h4v-5h4v5h7v4h-7v12.8c0,2.54,1.25,4,3.46,4a4.81,4.81,0,0,0,3.12-1.11l1.25,3.07A7.2,7.2,0,0,1,220,256Zm28.32-.62c-7.09,0-12.31-5-12.31-12.09s5.22-12,12.31-12,12.27,5,12.27,12S255.42,255.33,248.32,255.33Zm33.51,0c-3.92,0-7.81-1.2-9.77-2.76l1.78-3.39a15.27,15.27,0,0,0,8.3,2.45c4,0,5.63-1.2,5.63-3.21,0-5.31-14.95-.71-14.95-10.13,0-4.24,3.79-7.09,9.86-7.09a17.18,17.18,0,0,1,8.61,2.14l-1.83,3.39a12.38,12.38,0,0,0-6.83-1.87c-3.74,0-5.57,1.38-5.57,3.25,0,5.58,15,1,15,10.22C292.05,252.61,288.12,255.33,281.83,255.33Zm68.09.23-4.15-4.15a14.6,14.6,0,0,1-10.44,4c-6.33,0-10.93-3.34-10.93-8.12,0-3.83,2.19-6.51,7.59-9.59-2.82-2.81-3.75-4.82-3.75-7.14,0-4.19,3.3-7,8.43-7,4.73,0,7.76,2.45,7.76,6.51,0,3.17-1.87,5.44-6.64,8.17l7.71,7.67a19.58,19.58,0,0,0,1.92-5.67l3.44,1.12a20.57,20.57,0,0,1-2.72,7.14l4.19,4.19Zm45.92-.14c-4.78,0-9.46-1.6-12-3.92l1.65-3.48a16.11,16.11,0,0,0,10.31,3.61c5.4,0,7.72-2.1,7.72-4.82,0-7.63-18.92-2.81-18.92-14.41,0-4.82,3.75-8.92,12-8.92a18.38,18.38,0,0,1,10,2.76l-1.47,3.57a16.12,16.12,0,0,0-8.56-2.54c-5.31,0-7.59,2.23-7.59,4.95,0,7.63,18.92,2.86,18.92,14.33C407.93,251.32,404.09,255.42,395.84,255.42Zm47.78-9.86H424.44c.53,4.15,3.88,6.91,8.57,6.91a8.85,8.85,0,0,0,6.82-2.85l2.37,2.76a11.88,11.88,0,0,1-9.33,3.84c-7.63,0-12.71-5-12.71-12.09s5-12,11.86-12,11.69,4.91,11.69,12.18A12.19,12.19,0,0,1,443.62,245.56Zm27.38-10a7.55,7.55,0,0,0-.93,0c-4.36,0-7.07,2.66-7.07,7.57v12.48h-5v-24h4v4c1.59-2.77,4.66-4.2,9-4.2Zm25.27,20h-4.44l-10.51-24h4.53l8.24,19.24,8.43-19.24h4.25Zm26.73,0h-4v-24h4Zm-1.73-28.69a2.79,2.79,0,0,1-2.9-2.77,2.82,2.82,0,0,1,2.9-2.81,2.78,2.78,0,0,1,2.9,2.72A2.81,2.81,0,0,1,521.27,226.87ZM550.36,252a7.35,7.35,0,0,0,6.42-3.39l3.26,2.06c-1.87,3.3-5.35,5.08-9.55,5.08l-.53,2c2.58.26,3.88,1.74,3.88,3.7,0,2.5-2.19,4.06-5.53,4.06a7.51,7.51,0,0,1-4-1l.94-2.19a5.87,5.87,0,0,0,3,.76c1.69,0,2.49-.67,2.49-1.79s-.75-1.73-2.54-1.73h-1.2l1-4a11.69,11.69,0,0,1-10.17-11.91c0-7,5.22-12,12.49-12,4.24,0,7.77,1.74,9.64,5l-3.26,2.09a7.35,7.35,0,0,0-6.42-3.39c-4.64,0-8.12,3.26-8.12,8.3S545.72,252,550.36,252Zm33.51,3.32c-7.09,0-12.31-5-12.31-12.09s5.22-12,12.31-12,12.27,5,12.27,12S591,255.33,583.87,255.33Zm33.51,0c-3.93,0-7.81-1.2-9.77-2.76l1.78-3.39a15.27,15.27,0,0,0,8.3,2.45c4,0,5.62-1.2,5.62-3.21,0-5.31-14.94-.71-14.94-10.13,0-4.24,3.79-7.09,9.86-7.09a17.18,17.18,0,0,1,8.61,2.14L625,236.73a12.38,12.38,0,0,0-6.83-1.87c-3.74,0-5.57,1.38-5.57,3.25,0,5.58,15,1,15,10.22C627.6,252.61,623.67,255.33,617.38,255.33Zm78.83.23h-4.65L683.1,230.8l-8.45,24.76h-4.74l-10.37-31h4.57l8.37,25.19,8.72-25.19h4.07l8.55,25.33,8.55-25.33h4.21Zm43.39-10H720.41c.54,4.15,3.88,6.91,8.57,6.91a8.85,8.85,0,0,0,6.82-2.85l2.37,2.76c-2.14,2.5-5.4,3.84-9.33,3.84-7.63,0-12.71-5-12.71-12.09s5-12,11.87-12,11.68,4.91,11.68,12.18C739.68,244.62,739.64,245.15,739.6,245.56Zm27.08,10.22c-3.48,0-7.68-4-7.68-4v3.8h-5v-33h4v12.87a11.53,11.53,0,0,1,8.68-3.79c6.92,0,12,4.82,12,12.05S773.6,255.78,766.68,255.78Z"></path><path class="cls-1" d="M728,234.77a7.38,7.38,0,0,0-7.59,6.79h15.17A7.39,7.39,0,0,0,728,234.77Z"></path><path class="cls-1" d="M93,80.69V128a9,9,0,0,1-18,0V82.67C75,63.46,65.47,54,48.79,54,30.1,54,18,65.3,18,86.55V128a9,9,0,0,1-18,0V9A9,9,0,0,1,18,9V34.74a9,9,0,0,0,13,8,49.6,49.6,0,0,1,21.5-4.51C76.23,38.22,93,51.88,93,80.69Z"></path><path class="cls-1" d="M234.58,120.34l.16-.3a7.87,7.87,0,0,1,10.4-3.41A66.23,66.23,0,0,0,272.92,123c16.45,0,23.29-5,23.29-13.31,0-22-61.91-3-61.91-41.94,0-17.56,15.71-29.38,40.84-29.38a80.67,80.67,0,0,1,27.68,4.9A7.88,7.88,0,0,1,307,54.32h0a7.83,7.83,0,0,1-10,3.49,53.82,53.82,0,0,0-22-4.34c-15.52,0-23.1,5.73-23.1,13.49,0,23.09,62.09,4.25,62.09,42.31,0,17.74-16.26,29-42.32,29-12.46,0-24.81-2.93-33.56-7.2A7.87,7.87,0,0,1,234.58,120.34Z"></path><path class="cls-1" d="M389.74,126.48a7.14,7.14,0,0,1-3.56,9.42A39.15,39.15,0,0,1,370.5,139c-20.06,0-31.5-10.9-31.5-30.67V61.74a7.17,7.17,0,0,0-7.18-7.18h-2.64A7.18,7.18,0,0,1,322,47.38v-.64a7.17,7.17,0,0,1,7.18-7.18h2.64A7.18,7.18,0,0,0,339,32.38V25.74a7.17,7.17,0,0,1,7.18-7.18h3.64A7.17,7.17,0,0,1,357,25.74v6.64a7.18,7.18,0,0,0,7.18,7.18h13.64A7.17,7.17,0,0,1,385,46.74v.64a7.18,7.18,0,0,1-7.18,7.18H364.18A7.17,7.17,0,0,0,357,61.74v45.85c0,10.53,5.63,16.44,15.56,16.44a24.39,24.39,0,0,0,8.22-1.41,7.14,7.14,0,0,1,9,3.86Z"></path><path class="cls-1" d="M211.72,63.7c-3.29,2.89-7.67,6.66-12.93,11A39.88,39.88,0,0,1,201,88.21c0,20.88-14,34.55-32.89,34.55s-33.08-13.67-33.08-34.55c0-19.51,12.42-32.56,29.41-34.19l.57-.22c13.14-5,29-2.67,42,1.2C198,44.55,184.27,38.32,168.15,38.32c-29.38,0-51,20.69-51,49.89s21.62,50.07,51,50.07S219,117.4,219,88.21a51.78,51.78,0,0,0-5.85-24.46Z"></path><path class="cls-1" d="M503,57.2c-41.27,0-41.38,65.12,0,65.07,17.77,0,31.06-13.16,31.06-32.47S520.73,57.2,503,57.2Z"></path><path class="cls-1" d="M639.52,89.25c0,1,0,2,.1,2.93a2.11,2.11,0,0,0,2.51,1.93L696.6,83.47A2.07,2.07,0,0,0,698.23,81C690.63,45.1,639.16,51.07,639.52,89.25Z"></path><path class="cls-1" d="M766,7.56H517a100,100,0,0,0-100,100v33a25,25,0,0,0,25,25H716a100,100,0,0,0,100-100v-8A50,50,0,0,0,766,7.56ZM539,150.15a3.38,3.38,0,0,1-1.63,2.91,10,10,0,0,1-1,.5h-.14s-2.24-.93-2.26-2.16V115.21a2.22,2.22,0,0,0-4-1.34c-6.26,8.22-16,13-27.18,13-47.36-.24-47.09-73.34,0-73.6,11.38,0,21.07,4.89,27.29,13.33.68.92,2,.51,3.11-.09a3.41,3.41,0,0,0,1.78-3V56.11s.16-2.24,1.4-2.24a2.82,2.82,0,0,1,2.6,3Zm74.17-24.27c-13.89,3.66-26.63-3.3-26.17-17.55V24.45a1.9,1.9,0,0,1,1.9-1.89h1.2a1.9,1.9,0,0,1,1.9,1.89v83c-.34,12.6,8.88,17.13,20.18,14.63a1.95,1.95,0,0,1,1,3.76Zm88.3-39.62L642.88,97.9a2.12,2.12,0,0,0-1.61,2.71c4.15,13.13,15.61,21.66,30.71,21.66,8.87,0,17-3,22.74-9.06a2.06,2.06,0,0,1,3.12.1,2.17,2.17,0,0,1-.21,2.8c-6.41,6.83-15.61,10.35-25.79,10.35-48,.53-49.22-73.07-2-73.59,18.35,0,31.36,13.78,33.28,31.07A2.13,2.13,0,0,1,701.47,86.26ZM776,57.56h-1.25C757.89,57.56,748,69,748,87.69v36.63a2.26,2.26,0,0,1-2.42,2.24s-2.24-1.07-1.58-2.31V56.11c-.66-1.24.35-2.24,1.58-2.24S748,56.11,748,56.11v6.36a2.24,2.24,0,0,0,4,1.32c4.76-6.21,12.08-9.85,21.6-10.36A2.25,2.25,0,0,1,776,55.67Z"></path><circle class="cls-1" cx="167" cy="75.56" r="5"></circle></g></g></svg>